<?xml version="1.0" encoding="UTF-8" standalone="no"?>
<svg
   xmlns:dc="http://purl.org/dc/elements/1.1/"
   xmlns:cc="http://creativecommons.org/ns#"
   xmlns:rdf="http://www.w3.org/1999/02/22-rdf-syntax-ns#"
   xmlns:svg="http://www.w3.org/2000/svg"
   xmlns="http://www.w3.org/2000/svg"
   xmlns:sodipodi="http://sodipodi.sourceforge.net/DTD/sodipodi-0.dtd"
   xmlns:inkscape="http://www.inkscape.org/namespaces/inkscape"
   width="238.33449"
   height="266.89526"
   viewBox="-2.7755576e-17 0 1525.3407 1708.1297"
   version="1.1"
   id="svg89"
   sodipodi:docname="neptune_logo.svg"
   style="fill:none"
   inkscape:version="0.92.5 (2060ec1f9f, 2020-04-08)">
  <metadata
     id="metadata93">
    <rdf:RDF>
      <cc:Work
         rdf:about="">
        <dc:format>image/svg+xml</dc:format>
        <dc:type
           rdf:resource="http://purl.org/dc/dcmitype/StillImage" />
        <dc:title></dc:title>
      </cc:Work>
    </rdf:RDF>
  </metadata>
  <sodipodi:namedview
     pagecolor="#ffffff"
     bordercolor="#666666"
     borderopacity="1"
     objecttolerance="10"
     gridtolerance="10"
     guidetolerance="10"
     inkscape:pageopacity="0"
     inkscape:pageshadow="2"
     inkscape:window-width="1284"
     inkscape:window-height="681"
     id="namedview91"
     showgrid="false"
     fit-margin-top="0"
     fit-margin-left="0"
     fit-margin-right="0"
     fit-margin-bottom="0"
     viewbox-width="1285.59"
     scale-x="6.4"
     showborder="true"
     inkscape:zoom="0.25"
     inkscape:cx="465.56752"
     inkscape:cy="349.74143"
     inkscape:window-x="2512"
     inkscape:window-y="340"
     inkscape:window-maximized="0"
     inkscape:current-layer="svg89"
     inkscape:pagecheckerboard="false"
     viewbox-x="-2.7755576e-17" />
  <g
     id="g3906"
     transform="matrix(1.1875255,0,0,1.1875255,273.26842,322.82431)">
    <path
       style="fill:url(#paint0_radial_1956_348)"
       inkscape:connector-curvature="0"
       id="path2"
       d="m 311.52104,824.34599 c 211.288,56.61 430.256,-75.45 489.07903,-294.98003 58.82,-219.528 -64.77703,-443.385986 -276.06503,-499.999986 -211.288,-56.615 -430.256,75.452996 -489.079,294.979986 -58.822,219.528 64.776,443.39003 276.065,500.00003 z" />
    <path
       style="fill:url(#paint1_linear_1956_348)"
       inkscape:connector-curvature="0"
       id="path4"
       d="m 311.52104,824.34599 c 211.288,56.61 430.256,-75.45 489.07903,-294.98003 58.82,-219.528 -64.77703,-443.385986 -276.06503,-499.999986 -211.288,-56.615 -430.256,75.452996 -489.079,294.979986 -58.822,219.528 64.776,443.39003 276.065,500.00003 z" />
    <path
       style="fill:url(#paint2_radial_1956_348)"
       inkscape:connector-curvature="0"
       id="path6"
       d="m 311.52104,824.34599 c 211.288,56.61 430.256,-75.45 489.07903,-294.98003 58.82,-219.528 -64.77703,-443.385986 -276.06503,-499.999986 -211.288,-56.615 -430.256,75.452996 -489.079,294.979986 -58.822,219.528 64.776,443.39003 276.065,500.00003 z" />
    <path
       style="fill:url(#paint3_radial_1956_348)"
       inkscape:connector-curvature="0"
       id="path8"
       d="m 311.52104,824.34599 c 211.288,56.61 430.256,-75.45 489.07903,-294.98003 58.82,-219.528 -64.77703,-443.385986 -276.06503,-499.999986 -211.288,-56.615 -430.256,75.452996 -489.079,294.979986 -58.822,219.528 64.776,443.39003 276.065,500.00003 z" />
    <g
       transform="translate(-232.04996,-272.14403)"
       style="filter:url(#filter0_f_1956_348)"
       id="g12">
      <path
         style="fill:#12235f;fill-opacity:0.3"
         inkscape:connector-curvature="0"
         id="path10"
         d="m 830.757,355.663 c 0,0 45.47,92.269 51.395,154.744 13.952,147.119 -72.514,255.972 -147.153,343.406 93.511,51.356 178.084,-125.585 191.835,-218.368 10.125,-68.315 10.057,-186.486 -96.077,-279.782 z" />
    </g>
    <g
       transform="translate(-230.12996,-272.14403)"
       style="filter:url(#filter1_f_1956_348)"
       id="g16">
      <path
         style="fill:#12235f;fill-opacity:0.3"
         inkscape:connector-curvature="0"
         id="path14"
         d="m 559.257,1083.33 c 0,0 -78.779,-84.302 -107.305,-149.971 C 384.777,778.717 431.675,630.853 474.522,510.292 362.605,486.939 342.241,707.949 362.099,813.27 c 14.621,77.545 57.461,205.61 197.158,270.06 z" />
    </g>
    <path
       style="fill:url(#paint4_linear_1956_348)"
       inkscape:connector-curvature="0"
       id="path18"
       d="m 244.64404,236.15497 c 0,0 -27.778,-27.141 -39.607,-24.823 -18.724,3.693 -54.548,26.346 -66.707,41.54 -18.492,23.108 -40.154,54.902 -51.146,82.641 -26.663,67.28 -32.893,177.223 -12.552,246.675 18.893,74.498 49.812,105.596 101.302,157.36802 52.387,52.68 101.829,75.23 140.747,86.11 -58.945,-28.89 -72.596,-44.97 -107.26,-86.1 -28.282,-33.55902 -40.718,-55.95102 -58.05,-96.28802 -17.486,-40.694 -24.628,-65.418 -29.996,-109.308 -8.079,-66.052 1.881,-117.665 16.971,-169.139 7.177,-24.461 28.579,-71.584 64.557,-101.772 14.86,-12.469 41.741,-26.904 41.741,-26.904 z" />
    <path
       style="fill:url(#paint5_linear_1956_348)"
       inkscape:connector-curvature="0"
       id="path20"
       d="m 457.65404,634.90196 c 0,0 16.642,41.557 28.521,43.938 18.813,3.748 59.571,-9.696 76.657,-19.132 25.985,-14.35 59.39,-29.386 80.165,-50.906 50.39,-52.192 98.02,-151.788 105.539,-224.003 10.784,-76.342 -1.681,-119.235 -32.259,-186.544 -26.431,-58.18 -63.275,-115.227986 -98.46,-130.407986 45.629,47.417996 55.364,67.152986 72.188,118.826986 13.766,42.282 14.988,68.51 14.332,112.916 -0.654,44.34 -5.896,69.259 -17.607,112.027 -17.625,64.364 -46.525,108.424 -80.141,150.39 -15.981,19.94 -34.268,38.543 -56.468,50.715 -12.536,6.876 -25.491,13.174 -43.017,17.584 -18.888,4.754 -49.45,4.596 -49.45,4.596 z" />
    <path
       style="fill:url(#paint6_radial_1956_348)"
       inkscape:connector-curvature="0"
       id="path22"
       d="m 163.42904,106.06697 c -9.012,7.02 -17.582,14.62699 -25.659,22.77499 -86.661,87.293 -131.079,217.543 -116.762,342.378 7.222,62.978 18.494,122.43 51.96,175.626 16.751,26.647 35.772,53.154 64.746,81.34003 58.276,56.69 144.302,91.48 179.374,97.61 -27.661,-9.64 -96.229,-39.73 -142.491,-87.94 -12.573,-13.10303 -19.753,-21.26803 -30.062,-35.61303 -20.723,-28.752 -36.228,-61.392 -46.949,-95.446 -22.9,-72.741 -23.028,-150.793 -7.752,-224.802 9.773,-47.34 28.169,-97.977 60.348,-133.957 10.871,-12.158 24.427,-23.018 40.365,-25.044 64.072,-8.162 75.14,83.711 83.305,129.465 16.594,92.798 47.286,182.378 90.932,265.395 34.963,66.451 84.24,132.84203 155.104,150.92203 54.562,13.92 113.459,-4.46 158.124,-39.33 44.665,-34.86903 76.553,-84.65103 100.65803,-136.96303 17.42,-37.817 31.28,-77.637 38.24,-118.981 8.25,-49.079 6.63,-99.849 -3.45,-148.688 -23.82,-115.413 -147.41403,-243.530986 -200.47303,-259.405986 41.18,21.321 110.071,118.557986 125.867,202.466986 15.796,83.909 1.281,173.35 -40.073,246.923 -17.918,31.878 -43.635,62.74 -78.661,69.741 -37.878,7.577 -76.049,-15.234 -102.52,-44.536 -46.664,-51.69 -67.629,-122.302 -83.194,-191.069 -15.565,-68.767 -27.706,-139.87 -61.456,-201.363 -17.622,-32.09799 -42.523,-62.098986 -76.073,-74.503986 -45.35,-16.776 -94.09,2.395 -133.448,32.999996 z" />
    <path
       style="fill:url(#paint7_linear_1956_348)"
       inkscape:connector-curvature="0"
       id="path24"
       d="m 163.42904,106.06697 c -9.012,7.02 -17.582,14.62699 -25.659,22.77499 -86.661,87.293 -131.079,217.543 -116.762,342.378 7.222,62.978 18.494,122.43 51.96,175.626 16.751,26.647 35.772,53.154 64.746,81.34003 58.276,56.69 144.302,91.48 179.374,97.61 -27.661,-9.64 -96.229,-39.73 -142.491,-87.94 -12.573,-13.10303 -19.753,-21.26803 -30.062,-35.61303 -20.723,-28.752 -36.228,-61.392 -46.949,-95.446 -22.9,-72.741 -23.028,-150.793 -7.752,-224.802 9.773,-47.34 28.169,-97.977 60.348,-133.957 10.871,-12.158 24.427,-23.018 40.365,-25.044 64.072,-8.162 75.14,83.711 83.305,129.465 16.594,92.798 47.286,182.378 90.932,265.395 34.963,66.451 84.24,132.84203 155.104,150.92203 54.562,13.92 113.459,-4.46 158.124,-39.33 44.665,-34.86903 76.553,-84.65103 100.65803,-136.96303 17.42,-37.817 31.28,-77.637 38.24,-118.981 8.25,-49.079 6.63,-99.849 -3.45,-148.688 -23.82,-115.413 -147.41403,-243.530986 -200.47303,-259.405986 41.18,21.321 110.071,118.557986 125.867,202.466986 15.796,83.909 1.281,173.35 -40.073,246.923 -17.918,31.878 -43.635,62.74 -78.661,69.741 -37.878,7.577 -76.049,-15.234 -102.52,-44.536 -46.664,-51.69 -67.629,-122.302 -83.194,-191.069 -15.565,-68.767 -27.706,-139.87 -61.456,-201.363 -17.622,-32.09799 -42.523,-62.098986 -76.073,-74.503986 -45.35,-16.776 -94.09,2.395 -133.448,32.999996 z" />
    <path
       style="fill:url(#paint8_linear_1956_348);fill-opacity:0.37000002"
       inkscape:connector-curvature="0"
       id="path26"
       d="m 163.42904,106.06697 c -9.012,7.02 -17.582,14.62699 -25.659,22.77499 -86.661,87.293 -131.079,217.543 -116.762,342.378 7.222,62.978 18.494,122.43 51.96,175.626 16.751,26.647 35.772,53.154 64.746,81.34003 58.276,56.69 144.302,91.48 179.374,97.61 -27.661,-9.64 -96.229,-39.73 -142.491,-87.94 -12.573,-13.10303 -19.753,-21.26803 -30.062,-35.61303 -20.723,-28.752 -36.228,-61.392 -46.949,-95.446 -22.9,-72.741 -23.028,-150.793 -7.752,-224.802 9.773,-47.34 28.169,-97.977 60.348,-133.957 10.871,-12.158 24.427,-23.018 40.365,-25.044 64.072,-8.162 75.14,83.711 83.305,129.465 16.594,92.798 47.286,182.378 90.932,265.395 34.963,66.451 84.24,132.84203 155.104,150.92203 54.562,13.92 113.459,-4.46 158.124,-39.33 44.665,-34.86903 76.553,-84.65103 100.65803,-136.96303 17.42,-37.817 31.28,-77.637 38.24,-118.981 8.25,-49.079 6.63,-99.849 -3.45,-148.688 -23.82,-115.413 -147.41403,-243.530986 -200.47303,-259.405986 41.18,21.321 110.071,118.557986 125.867,202.466986 15.796,83.909 1.281,173.35 -40.073,246.923 -17.918,31.878 -43.635,62.74 -78.661,69.741 -37.878,7.577 -76.049,-15.234 -102.52,-44.536 -46.664,-51.69 -67.629,-122.302 -83.194,-191.069 -15.565,-68.767 -27.706,-139.87 -61.456,-201.363 -17.622,-32.09799 -42.523,-62.098986 -76.073,-74.503986 -45.35,-16.776 -94.09,2.395 -133.448,32.999996 z" />
  </g>
  <defs
     id="defs87">
    <filter
       id="filter0_f_1956_348"
       x="379.63501"
       y="0.29782099"
       width="906.76898"
       height="1218.05"
       filterUnits="userSpaceOnUse"
       style="color-interpolation-filters:sRGB">
      <feFlood
         flood-opacity="0"
         result="BackgroundImageFix"
         id="feFlood28" />
      <feBlend
         mode="normal"
         in="SourceGraphic"
         in2="BackgroundImageFix"
         result="shape"
         id="feBlend30" />
      <feGaussianBlur
         stdDeviation="177.682"
         result="effect1_foregroundBlur_1956_348"
         id="feGaussianBlur32" />
    </filter>
    <filter
       id="filter1_f_1956_348"
       x="0.0141296"
       y="153.21201"
       width="914.60699"
       height="1285.48"
       filterUnits="userSpaceOnUse"
       style="color-interpolation-filters:sRGB">
      <feFlood
         flood-opacity="0"
         result="BackgroundImageFix"
         id="feFlood35" />
      <feBlend
         mode="normal"
         in="SourceGraphic"
         in2="BackgroundImageFix"
         result="shape"
         id="feBlend37" />
      <feGaussianBlur
         stdDeviation="177.682"
         result="effect1_foregroundBlur_1956_348"
         id="feGaussianBlur39" />
    </filter>
    <radialGradient
       id="paint0_radial_1956_348"
       cx="0"
       cy="0"
       r="1"
       gradientUnits="userSpaceOnUse"
       gradientTransform="matrix(-260.94479,369.81689,-378.02032,-266.73317,550.92304,165.42697)">
      <stop
         stop-color="#F4F6FC"
         id="stop42" />
      <stop
         offset="1"
         stop-color="#062677"
         id="stop44" />
    </radialGradient>
    <linearGradient
       id="paint1_linear_1956_348"
       x1="538.88501"
       y1="262.513"
       x2="708.25702"
       y2="876.271"
       gradientUnits="userSpaceOnUse"
       gradientTransform="translate(-226.04996,-272.14403)">
      <stop
         stop-color="#0669FF"
         id="stop47" />
      <stop
         offset="1"
         stop-opacity="0"
         id="stop49" />
    </linearGradient>
    <radialGradient
       id="paint2_radial_1956_348"
       cx="0"
       cy="0"
       r="1"
       gradientUnits="userSpaceOnUse"
       gradientTransform="matrix(-420.16607,462.46946,-461.60792,-419.38335,582.67604,208.52097)">
      <stop
         stop-color="#4FB4FF"
         stop-opacity="0"
         id="stop52" />
      <stop
         offset="1"
         stop-color="#052272"
         id="stop54" />
    </radialGradient>
    <radialGradient
       id="paint3_radial_1956_348"
       cx="0"
       cy="0"
       r="1"
       gradientUnits="userSpaceOnUse"
       gradientTransform="matrix(-233.72773,242.8027,-242.35027,-233.29221,594.01704,206.25297)">
      <stop
         stop-color="white"
         stop-opacity="0.81"
         id="stop57" />
      <stop
         offset="1"
         stop-color="white"
         stop-opacity="0"
         id="stop59" />
    </radialGradient>
    <linearGradient
       id="paint4_linear_1956_348"
       x1="412.47501"
       y1="586.97998"
       x2="416.01999"
       y2="929.57599"
       gradientUnits="userSpaceOnUse"
       gradientTransform="translate(-226.04996,-272.14403)">
      <stop
         stop-color="#021B68"
         id="stop62" />
      <stop
         offset="1"
         stop-color="#2273B1"
         id="stop64" />
    </linearGradient>
    <linearGradient
       id="paint5_linear_1956_348"
       x1="768.91602"
       y1="862.10602"
       x2="896.51202"
       y2="543.16901"
       gradientUnits="userSpaceOnUse"
       gradientTransform="translate(-226.04996,-272.14403)">
      <stop
         stop-color="#08194B"
         id="stop67" />
      <stop
         offset="1"
         stop-color="#2173B0"
         id="stop69" />
    </linearGradient>
    <radialGradient
       id="paint6_radial_1956_348"
       cx="0"
       cy="0"
       r="1"
       gradientUnits="userSpaceOnUse"
       gradientTransform="matrix(-295.88053,532.62007,-604.89827,-336.03243,622.25104,261.96097)">
      <stop
         stop-color="#A6D8FC"
         id="stop72" />
      <stop
         offset="1"
         stop-color="#1D7FC8"
         id="stop74" />
    </radialGradient>
    <linearGradient
       id="paint7_linear_1956_348"
       x1="311.60101"
       y1="1025.23"
       x2="737.30902"
       y2="722.91199"
       gradientUnits="userSpaceOnUse"
       gradientTransform="translate(-226.04996,-272.14403)">
      <stop
         stop-color="#3898F0"
         id="stop77" />
      <stop
         offset="1"
         stop-color="white"
         stop-opacity="0"
         id="stop79" />
    </linearGradient>
    <linearGradient
       id="paint8_linear_1956_348"
       x1="481.37399"
       y1="970.60303"
       x2="737.63098"
       y2="582.71399"
       gradientUnits="userSpaceOnUse"
       gradientTransform="translate(-226.04996,-272.14403)">
      <stop
         stop-color="#103855"
         id="stop82" />
      <stop
         offset="1"
         stop-color="#0024A4"
         stop-opacity="0"
         id="stop84" />
    </linearGradient>
  </defs>
</svg>
