<svg width="570" height="249" viewBox="0 0 570 249" fill="none" xmlns="http://www.w3.org/2000/svg">
<g clip-path="url(#clip0_1980_3638)">
<rect width="570" height="249" fill="white"/>
<mask id="mask0_1980_3638" style="mask-type:alpha" maskUnits="userSpaceOnUse" x="-16" y="-36" width="587" height="521">
<rect x="570.013" y="-35.8889" width="520.125" height="585.19" transform="rotate(90 570.013 -35.8889)" fill="url(#paint0_linear_1980_3638)"/>
</mask>
<g mask="url(#mask0_1980_3638)">
<rect x="570.013" y="-35.8889" width="520.125" height="585.19" transform="rotate(90 570.013 -35.8889)" fill="url(#paint1_linear_1980_3638)"/>
<rect opacity="0.1" x="-25.1211" y="148.809" width="404.093" height="404.093" rx="13.7222" fill="url(#paint2_linear_1980_3638)"/>
<rect opacity="0.1" x="130.368" y="98.3625" width="376.362" height="376.362" rx="13.7222" transform="rotate(-90 130.368 98.3625)" fill="url(#paint3_linear_1980_3638)"/>
<rect opacity="0.1" x="431.333" y="602.254" width="455.955" height="455.955" rx="13.7222" transform="rotate(-90 431.333 602.254)" fill="url(#paint4_linear_1980_3638)"/>
</g>
<path d="M204.594 153.98L207.272 161.573H207.378L210.055 153.98H211.201L207.888 163H206.761L203.449 153.98H204.594ZM224.339 163H223.194L226.506 153.98H227.634L230.946 163H229.801L227.105 155.407H227.035L224.339 163ZM224.762 159.476H229.378V160.445H224.762V159.476ZM244.49 163V153.98H245.582V162.031H249.775V163H244.49ZM264.697 153.98V163H263.605V153.98H264.697ZM281.81 163H279.026V153.98H281.933C282.808 153.98 283.557 154.16 284.18 154.522C284.802 154.88 285.279 155.395 285.611 156.067C285.943 156.737 286.109 157.539 286.109 158.472C286.109 159.412 285.941 160.221 285.607 160.899C285.272 161.574 284.784 162.094 284.144 162.458C283.504 162.819 282.726 163 281.81 163ZM280.119 162.031H281.74C282.485 162.031 283.103 161.887 283.594 161.599C284.084 161.312 284.45 160.902 284.69 160.371C284.931 159.839 285.052 159.206 285.052 158.472C285.052 157.744 284.933 157.117 284.695 156.592C284.457 156.063 284.102 155.658 283.629 155.376C283.156 155.091 282.568 154.949 281.863 154.949H280.119V162.031ZM300.026 163H298.881L302.193 153.98H303.32L306.632 163H305.487L302.792 155.407H302.721L300.026 163ZM300.449 159.476H305.064V160.445H300.449V159.476ZM318.629 154.949V153.98H325.394V154.949H322.558V163H321.466V154.949H318.629ZM346.454 158.49C346.454 159.441 346.283 160.263 345.939 160.956C345.596 161.649 345.124 162.184 344.525 162.56C343.926 162.935 343.242 163.123 342.473 163.123C341.704 163.123 341.019 162.935 340.42 162.56C339.821 162.184 339.35 161.649 339.007 160.956C338.663 160.263 338.491 159.441 338.491 158.49C338.491 157.539 338.663 156.716 339.007 156.023C339.35 155.33 339.821 154.796 340.42 154.42C341.019 154.044 341.704 153.856 342.473 153.856C343.242 153.856 343.926 154.044 344.525 154.42C345.124 154.796 345.596 155.33 345.939 156.023C346.283 156.716 346.454 157.539 346.454 158.49ZM345.397 158.49C345.397 157.709 345.267 157.05 345.005 156.512C344.747 155.975 344.396 155.568 343.953 155.292C343.512 155.016 343.019 154.878 342.473 154.878C341.927 154.878 341.432 155.016 340.989 155.292C340.548 155.568 340.197 155.975 339.936 156.512C339.678 157.05 339.548 157.709 339.548 158.49C339.548 159.271 339.678 159.93 339.936 160.467C340.197 161.005 340.548 161.411 340.989 161.687C341.432 161.963 341.927 162.102 342.473 162.102C343.019 162.102 343.512 161.963 343.953 161.687C344.396 161.411 344.747 161.005 345.005 160.467C345.267 159.93 345.397 159.271 345.397 158.49ZM360.43 163V153.98H363.478C364.183 153.98 364.761 154.1 365.213 154.341C365.665 154.579 366 154.906 366.217 155.323C366.435 155.74 366.543 156.214 366.543 156.746C366.543 157.277 366.435 157.748 366.217 158.16C366 158.571 365.667 158.894 365.218 159.129C364.768 159.361 364.194 159.476 363.495 159.476H361.029V158.49H363.46C363.942 158.49 364.329 158.419 364.623 158.278C364.92 158.138 365.134 157.938 365.266 157.679C365.401 157.418 365.469 157.107 365.469 156.746C365.469 156.385 365.401 156.069 365.266 155.799C365.131 155.529 364.915 155.32 364.619 155.173C364.322 155.024 363.93 154.949 363.443 154.949H361.522V163H360.43ZM364.676 158.948L366.896 163H365.627L363.443 158.948H364.676Z" fill="white"/>
<path d="M202 137H368.778" stroke="white" stroke-width="0.527778"/>
<path fill-rule="evenodd" clip-rule="evenodd" d="M259.3 85.5826V89.4647C259.3 89.6811 259.476 89.8565 259.694 89.8565H306.025C306.24 89.8565 306.414 90.0296 306.414 90.2432V100.107C306.411 100.319 306.239 100.491 306.025 100.493H259.694C259.478 100.493 259.303 100.666 259.3 100.88V104.963C259.3 105.177 259.474 105.35 259.689 105.35H310.716C311.04 105.35 311.302 105.089 311.302 104.767V85.5826C311.302 85.2608 311.04 85 310.716 85H259.886C259.562 85 259.3 85.2608 259.3 85.5826ZM317.289 85.5831V104.959C317.289 105.175 317.466 105.35 317.683 105.35H368.397C368.721 105.35 368.983 105.09 368.983 104.768V85.5831C368.983 85.2614 368.721 85.0006 368.397 85.0006H317.9C317.741 84.9937 317.585 85.052 317.47 85.162C317.354 85.272 317.289 85.4242 317.289 85.5831ZM363.707 100.494H322.567C322.351 100.494 322.176 100.322 322.173 100.108V90.244C322.173 90.1405 322.215 90.0414 322.289 89.9687C322.363 89.8961 322.463 89.8559 322.567 89.8572H363.707C363.811 89.8559 363.911 89.8961 363.985 89.9687C364.059 90.0414 364.101 90.1405 364.101 90.244V100.108C364.098 100.322 363.922 100.494 363.707 100.494ZM317.727 116.399C317.659 116.399 317.604 116.454 317.604 116.522V120.557C317.604 120.625 317.659 120.68 317.727 120.68H321.763C321.831 120.68 321.886 120.625 321.886 120.557V116.522C321.886 116.454 321.831 116.399 321.763 116.399H317.727ZM202 85.9693V104.958C202 105.173 202.173 105.347 202.389 105.35H252.714C252.974 105.35 253.222 105.247 253.405 105.064C253.588 104.881 253.69 104.634 253.689 104.376V85.9693C253.689 85.434 253.252 85 252.714 85H202.975C202.437 85.0028 202.003 85.4351 202 85.9693ZM248.418 100.493H207.273C207.058 100.493 206.884 100.32 206.884 100.106V90.2425C206.882 90.1395 206.923 90.0403 206.996 89.9675C207.069 89.8947 207.169 89.8544 207.273 89.8558H248.418C248.521 89.8544 248.621 89.8947 248.694 89.9675C248.767 90.0403 248.808 90.1395 248.806 90.2425V100.106C248.806 100.32 248.632 100.493 248.418 100.493ZM202 116.522C202 116.454 202.055 116.399 202.123 116.399H206.159C206.227 116.399 206.282 116.454 206.282 116.522V120.557C206.282 120.625 206.227 120.68 206.159 120.68H202.123C202.055 120.68 202 120.625 202 120.557V116.522ZM311.302 120.96V117.278C311.303 116.958 311.043 116.698 310.722 116.696H259.72C259.504 116.696 259.329 116.868 259.326 117.082V121.155C259.329 121.367 259.502 121.537 259.715 121.537H310.717C311.038 121.537 311.3 121.279 311.302 120.96Z" fill="white"/>
</g>
<defs>
<linearGradient id="paint0_linear_1980_3638" x1="570.013" y1="549.301" x2="1151.16" y2="32.7682" gradientUnits="userSpaceOnUse">
<stop stop-color="#1D5CD9"/>
<stop offset="1" stop-color="#3378FF"/>
</linearGradient>
<linearGradient id="paint1_linear_1980_3638" x1="570.013" y1="549.301" x2="1151.16" y2="32.7682" gradientUnits="userSpaceOnUse">
<stop stop-color="#1D5CD9"/>
<stop offset="1" stop-color="#3378FF"/>
</linearGradient>
<linearGradient id="paint2_linear_1980_3638" x1="176.925" y1="148.809" x2="176.925" y2="552.901" gradientUnits="userSpaceOnUse">
<stop stop-color="white"/>
<stop offset="1" stop-color="white" stop-opacity="0"/>
</linearGradient>
<linearGradient id="paint3_linear_1980_3638" x1="318.549" y1="98.3625" x2="318.549" y2="474.725" gradientUnits="userSpaceOnUse">
<stop stop-color="white"/>
<stop offset="1" stop-color="white" stop-opacity="0"/>
</linearGradient>
<linearGradient id="paint4_linear_1980_3638" x1="659.311" y1="602.254" x2="659.311" y2="1058.21" gradientUnits="userSpaceOnUse">
<stop stop-color="white"/>
<stop offset="1" stop-color="white" stop-opacity="0"/>
</linearGradient>
<clipPath id="clip0_1980_3638">
<rect width="570" height="249" fill="white"/>
</clipPath>
</defs>
</svg>
