<?xml version="1.0" encoding="utf-8"?>
<!-- Generator: Adobe Illustrator 24.0.1, SVG Export Plug-In . SVG Version: 6.00 Build 0)  -->
<svg version="1.1" xmlns="http://www.w3.org/2000/svg" xmlns:xlink="http://www.w3.org/1999/xlink" x="0px" y="0px"
	 viewBox="0 0 545.44 185.26" style="enable-background:new 0 0 545.44 185.26;" xml:space="preserve">
<style type="text/css">
	.st0{fill:#FF6600;}
	.st1{fill:#FF8D64;}
	.st2{fill:#FFBDA6;}
</style>
<g id="_x31_">
</g>
<g id="_x33_">
	<g>
		<g>
			<path class="st0" d="M207.93,108.85c-2.54,4.64-6.24,8.24-11.11,10.8c-4.87,2.57-10.69,3.85-17.45,3.85h-18.57V61.75h18.57
				c6.76,0,12.58,1.27,17.45,3.8c4.87,2.54,8.57,6.11,11.11,10.72c2.54,4.61,3.8,10.03,3.8,16.27
				C211.74,98.78,210.47,104.22,207.93,108.85z M195.64,108.72c3.96-3.85,5.95-9.24,5.95-16.18c0-6.94-1.98-12.33-5.95-16.18
				c-3.97-3.85-9.65-5.77-17.06-5.77h-7.81v43.91h7.81C185.99,114.5,191.68,112.57,195.64,108.72z"/>
			<path class="st0" d="M230.73,69.8v18.72h22.74v7.7h-22.74v19.16h25.37v8.13h-35.34V61.75h35.34v8.05H230.73z"/>
			<path class="st0" d="M271.94,120.27h23v3.24H268V61.84h3.94V120.27z"/>
			<path class="st0" d="M308.75,61.84v61.67h-3.94V61.84H308.75z"/>
			<path class="st0" d="M367.79,66.52c4.78,3.47,8.16,8.15,10.15,14.04h-4.11c-1.75-4.66-4.67-8.43-8.75-11.28
				c-4.08-2.86-8.98-4.29-14.69-4.29c-4.78,0-9.11,1.12-12.99,3.37c-3.88,2.25-6.94,5.47-9.18,9.67c-2.25,4.2-3.37,9.1-3.37,14.69
				c0,5.72,1.12,10.67,3.37,14.87c2.24,4.2,5.34,7.42,9.27,9.67c3.94,2.25,8.32,3.37,13.16,3.37c4.61,0,8.82-1.05,12.64-3.15
				c3.82-2.1,6.88-5.1,9.18-9.01c2.3-3.91,3.57-8.51,3.8-13.82h-27.29v-3.06h30.79v2.97c-0.17,5.66-1.52,10.74-4.02,15.26
				c-2.51,4.52-5.96,8.05-10.36,10.58c-4.4,2.54-9.4,3.8-15,3.8c-5.72,0-10.83-1.34-15.35-4.02c-4.52-2.68-8.03-6.41-10.54-11.2
				c-2.51-4.78-3.76-10.2-3.76-16.27c0-6.06,1.25-11.49,3.76-16.27c2.51-4.78,6.02-8.5,10.54-11.15c4.52-2.65,9.64-3.98,15.35-3.98
				C357.21,61.32,363.01,63.05,367.79,66.52z"/>
			<path class="st0" d="M435.58,61.84v61.67h-4.02v-30h-35.86v30h-3.94V61.84h3.94v28.34h35.86V61.84H435.58z"/>
			<path class="st0" d="M483.68,61.84v3.32h-17.76v58.34h-4.02V65.16h-17.67v-3.32H483.68z"/>
		</g>
		<g>
			<path class="st0" d="M136.03,92.76c0-21.13-17.13-38.26-38.26-38.26v38.26H136.03z"/>
			<path class="st1" d="M136.03,92.76c0,21.13-17.13,38.26-38.26,38.26V92.76H136.03z"/>
			<rect x="61.75" y="54.5" class="st2" width="36.02" height="38.26"/>
		</g>
	</g>
</g>
<g id="_x32_">
</g>
</svg>
