<?xml version="1.0" encoding="UTF-8"?>
<!DOCTYPE svg PUBLIC "-//W3C//DTD SVG 1.0//EN" "http://www.w3.org/TR/2001/REC-SVG-20010904/DTD/svg10.dtd">
<!-- Creator: CorelDRAW X8 -->
<svg xmlns="http://www.w3.org/2000/svg" xml:space="preserve" width="162px" height="80px" version="1.0" style="shape-rendering:geometricPrecision; text-rendering:geometricPrecision; image-rendering:optimizeQuality; fill-rule:evenodd; clip-rule:evenodd"
viewBox="0 0 162000 79925"
 xmlns:xlink="http://www.w3.org/1999/xlink">
 <defs>
  <style type="text/css">
   <![CDATA[
    .fil1 {fill:none}
    .fil5 {fill:#862430}
    .fil6 {fill:#9F182C}
    .fil4 {fill:#C51430}
    .fil0 {fill:white}
    .fil7 {fill:#FEFEFE;fill-rule:nonzero}
    .fil2 {fill:#EBECEC;fill-rule:nonzero}
    .fil3 {fill:#62594E;fill-rule:nonzero}
   ]]>
  </style>
    <clipPath id="id0">
     <path d="M0 0l162000 0 0 79925 -162000 0 0 -79925z"/>
    </clipPath>
 </defs>
 <g id="Warstwa_x0020_1">
  <metadata id="CorelCorpID_0Corel-Layer"/>
  <g id="_639646632">
   <path class="fil0" d="M0 0l162000 0 0 79925 -162000 0 0 -79925z"/>
   <g style="clip-path:url(#id0)">
   </g>
   <path id="1" class="fil1" d="M0 0l162000 0 0 79925 -162000 0 0 -79925z"/>
   <path class="fil2" d="M18052 37552l5095 -2942 239 413 -5095 2942 -239 -413zm17126 -257l6929 -4001 236 412 3327 -1921 716 1237 -3328 1922 234 412 -6930 4001 -474 -825 -19170 11068 -237 -412 19170 -11068 -473 -825zm0 3576l12350 -7131 1185 2062 -12351 7131 -473 -825 -16074 9280 -237 -412 16073 -9280 -473 -825zm-5 3576l15796 -9120 1194 2062 -15796 9120 -478 -825 -12976 7492 -239 -412 12977 -7492 -478 -825zm5 3576l18319 -10577 1184 2062 -18319 10577 -473 -825 -9879 5704 -239 -412 9880 -5704 -473 -825zm0 3576l20159 -11639 1185 2062 -20160 11639 -473 -825 -6782 3916 -239 -412 6783 -3916 -473 -825zm-5 3576l21367 -12336 1194 2062 -21367 12336 -478 -825 -3686 2128 -238 -412 3686 -2128 -478 -825zm5 3576l21872 -12628 1184 2062 -21872 12628 -473 -825 -589 340 -238 -412 589 -340 -473 -825zm-10811 -25395l12633 -7294 716 1237 -12632 7294 -717 -1237zm5259 542l11364 -6561 711 1236 -11364 6561 -237 -412 -15444 8917 -237 -413 15444 -8916 -237 -412zm3742 1415l10362 -5983 711 1237 -10362 5983 -236 -412 -19829 11448 -239 -412 19830 -11449 -237 -412z"/>
   <path class="fil2" d="M55519 26498l555 0 0 -364 -1520 0 0 364 556 0 0 1373 409 0 0 -1373zm1712 825l-1003 -1261 0 1809 396 0 0 -701 607 772 607 -772 0 701 396 0 0 -1809 -1003 1261z"/>
   <path class="fil3" d="M74639 38972l0 -1011 -2519 0 0 10224 2519 0 0 -5719c0,-857 181,-1508 541,-1949 364,-442 846,-662 1445,-662 615,0 1100,220 1461,662 364,441 544,1092 544,1949l0 5719 2519 0 0 -5719c0,-857 176,-1508 533,-1949 357,-442 835,-662 1435,-662 625,0 1118,220 1478,662 364,441 544,1092 544,1949l0 5719 2519 0 0 -6271c0,-945 -176,-1736 -525,-2372 -350,-636 -806,-1111 -1368,-1423 -563,-313 -1170,-471 -1821,-471 -783,0 -1475,121 -2071,361 -592,239 -1103,614 -1533,1129 -320,-504 -732,-876 -1243,-1122 -508,-247 -1063,-368 -1663,-368 -562,0 -1092,110 -1581,331 -489,221 -894,552 -1214,993zm25984 9213l0 -10224 -2501 0 0 974c-405,-404 -890,-721 -1453,-945 -563,-228 -1166,-342 -1802,-342 -956,0 -1821,235 -2593,710 -772,471 -1379,1121 -1820,1949 -442,827 -662,1747 -662,2766 0,1018 220,1941 662,2769 441,827 1048,1475 1820,1949 772,471 1637,706 2593,706 636,0 1239,-114 1802,-338 563,-228 1048,-544 1453,-949l0 975 2501 0zm-3763 -2299c-460,283 -974,423 -1552,423 -588,0 -1114,-147 -1574,-441 -460,-294 -809,-688 -1055,-1185 -247,-496 -368,-1033 -368,-1610 0,-578 121,-1111 368,-1608 246,-496 595,-893 1055,-1187 460,-295 986,-442 1574,-442 578,0 1092,140 1552,423 460,283 820,673 1078,1170 257,496 386,1044 386,1644 0,599 -129,1151 -386,1647 -258,497 -618,883 -1078,1166zm9040 -6914l0 -1011 -2519 0 0 10224 2519 0 0 -5627c0,-883 210,-1556 625,-2023 416,-467 945,-699 1582,-699 746,0 1294,221 1636,662 342,442 515,1129 515,2060l0 5627 2519 0 0 -6234c0,-1434 -356,-2508 -1066,-3225 -710,-717 -1629,-1078 -2758,-1078 -615,0 -1181,110 -1703,331 -519,221 -971,552 -1350,993zm19860 9213l0 -10224 -2501 0 0 974c-405,-404 -890,-721 -1453,-945 -563,-228 -1166,-342 -1802,-342 -956,0 -1820,235 -2593,710 -772,471 -1379,1121 -1820,1949 -442,827 -662,1747 -662,2766 0,1018 220,1941 662,2769 441,827 1048,1475 1820,1949 773,471 1637,706 2593,706 636,0 1239,-114 1802,-338 563,-228 1048,-544 1453,-949l0 975 2501 0zm-3763 -2299c-459,283 -974,423 -1552,423 -588,0 -1114,-147 -1574,-441 -459,-294 -809,-688 -1055,-1185 -247,-496 -368,-1033 -368,-1610 0,-578 121,-1111 368,-1608 246,-496 596,-893 1055,-1187 460,-295 986,-442 1574,-442 578,0 1093,140 1552,423 460,283 820,673 1078,1170 257,496 386,1044 386,1644 0,599 -129,1151 -386,1647 -258,497 -618,883 -1078,1166zm16561 3623l0 -11548 -2519 0 0 882c-394,-379 -861,-673 -1409,-882 -544,-210 -1121,-313 -1736,-313 -945,0 -1794,232 -2556,699 -761,467 -1353,1103 -1783,1912 -431,809 -644,1710 -644,2703 0,993 213,1898 644,2714 430,813 1022,1453 1783,1913 762,460 1611,688 2556,688 615,0 1192,-103 1736,-313 548,-210 1015,-504 1409,-883l0 2409c0,872 -254,1501 -765,1894 -508,394 -1103,589 -1791,589 -636,0 -1206,-158 -1703,-471 -496,-313 -787,-769 -871,-1368l-2501 0c84,872 367,1607 846,2207 478,599 1084,1048 1820,1342 735,294 1537,441 2409,441 908,0 1743,-154 2508,-460 769,-305 1387,-801 1857,-1489 475,-688 710,-1574 710,-2666zm-3714 -3825c-442,268 -938,404 -1490,404 -577,0 -1085,-139 -1526,-422 -441,-284 -783,-662 -1023,-1141 -239,-478 -356,-1000 -356,-1563 0,-562 117,-1081 356,-1552 240,-474 578,-849 1012,-1132 438,-284 949,-423 1537,-423 552,0 1048,136 1490,404 441,269 787,640 1037,1115 253,470 379,1000 379,1588 0,589 -126,1122 -379,1600 -250,478 -596,853 -1037,1122zm14240 -7326c-839,-475 -1799,-710 -2876,-710 -1067,0 -2019,235 -2862,710 -838,471 -1489,1121 -1956,1949 -467,827 -699,1747 -699,2766 0,1018 232,1941 699,2769 467,827 1118,1475 1956,1949 843,471 1795,706 2862,706 1077,0 2037,-235 2876,-706 842,-474 1493,-1122 1960,-1949 467,-828 699,-1751 699,-2769 0,-1019 -232,-1939 -699,-2766 -467,-828 -1118,-1478 -1960,-1949zm-1306 7510c-460,294 -982,441 -1570,441 -589,0 -1115,-147 -1574,-441 -460,-294 -809,-688 -1056,-1185 -246,-496 -368,-1033 -368,-1610 0,-578 122,-1111 368,-1608 247,-496 596,-893 1056,-1187 459,-295 985,-442 1574,-442 588,0 1110,147 1570,442 460,294 813,691 1059,1187 247,497 368,1030 368,1608 0,577 -121,1114 -368,1610 -246,497 -599,891 -1059,1185z"/>
   <path class="fil4" d="M36005 69500l25580 -14768 -25580 -14769 -25580 14769 25580 14768z"/>
   <path class="fil5" d="M61585 54732l-25580 -14768 0 -29539 25580 14768 0 29539z"/>
   <path class="fil6" d="M10425 54732l25580 -14768 0 -29539 -25580 14768 0 29539z"/>
   <path class="fil7" d="M18052 37552l5095 -2942 239 413 -5095 2942 -239 -413zm37467 -11054l555 0 0 -364 -1520 0 0 364 556 0 0 1373 409 0 0 -1373zm1712 825l-1003 -1261 0 1809 396 0 0 -701 607 772 607 -772 0 701 396 0 0 -1809 -1003 1261zm-22053 9972l6929 -4001 236 412 3327 -1921 716 1237 -3328 1922 234 412 -6930 4001 -474 -825 -19170 11068 -237 -412 19170 -11068 -473 -825zm0 3576l12350 -7131 1185 2062 -12351 7131 -473 -825 -16074 9280 -237 -412 16073 -9280 -473 -825zm-5 3576l15796 -9120 1194 2062 -15796 9120 -478 -825 -12976 7492 -239 -412 12977 -7492 -478 -825zm5 3576l18319 -10577 1184 2062 -18319 10577 -473 -825 -9879 5704 -239 -412 9880 -5704 -473 -825zm0 3576l20159 -11639 1185 2062 -20160 11639 -473 -825 -6782 3916 -239 -412 6783 -3916 -473 -825zm-5 3576l21367 -12336 1194 2062 -21367 12336 -478 -825 -3686 2128 -238 -412 3686 -2128 -478 -825zm5 3576l21872 -12628 1184 2062 -21872 12628 -473 -825 -589 340 -238 -412 589 -340 -473 -825zm-10811 -25395l12633 -7294 716 1237 -12632 7294 -717 -1237zm5259 542l11364 -6561 711 1236 -11364 6561 -237 -412 -15444 8917 -237 -413 15444 -8916 -237 -412zm3742 1415l10362 -5983 711 1237 -10362 5983 -236 -412 -19829 11448 -239 -412 19830 -11449 -237 -412z"/>
  </g>
 </g>
</svg>
